<?xml version="1.0" encoding="UTF-8" standalone="no"?>
<svg
   viewBox="0 0 185.92 36.62"
   width="185.92"
   height="36.62"
   version="1.1"
   id="svg61"
   sodipodi:docname="logo.svg"
   inkscape:version="1.1.1 (3bf5ae0d25, 2021-09-20, custom)"
   xmlns:inkscape="http://www.inkscape.org/namespaces/inkscape"
   xmlns:sodipodi="http://sodipodi.sourceforge.net/DTD/sodipodi-0.dtd"
   xmlns:xlink="http://www.w3.org/1999/xlink"
   xmlns="http://www.w3.org/2000/svg"
   xmlns:svg="http://www.w3.org/2000/svg">
  <sodipodi:namedview
     id="namedview63"
     pagecolor="#ffffff"
     bordercolor="#666666"
     borderopacity="1.0"
     inkscape:pageshadow="2"
     inkscape:pageopacity="0.0"
     inkscape:pagecheckerboard="0"
     showgrid="false"
     inkscape:zoom="0.78192234"
     inkscape:cx="38.366982"
     inkscape:cy="-31.333035"
     inkscape:window-width="624"
     inkscape:window-height="1034"
     inkscape:window-x="2013"
     inkscape:window-y="12"
     inkscape:window-maximized="1"
     inkscape:current-layer="svg61" />
  <defs
     id="defs38">
    <style
       id="style2">.cls-1{isolation:isolate;}.cls-2{fill:#fff;}.cls-3{fill:url(#linear-gradient);}.cls-4{fill:url(#linear-gradient-2);}.cls-5,.cls-6{mix-blend-mode:multiply;}.cls-5{fill:url(#linear-gradient-3);}.cls-7{fill:url(#linear-gradient-4);}.cls-8{fill:url(#linear-gradient-5);}.cls-9{mix-blend-mode:screen;fill:url(#radial-gradient);}</style>
    <linearGradient
       id="linear-gradient"
       x1="16.08"
       y1="-16.52"
       x2="10.26"
       y2="20.44"
       gradientUnits="userSpaceOnUse">
      <stop
         offset="0"
         stop-color="#0096d9"
         id="stop4" />
      <stop
         offset="1"
         stop-color="#00c198"
         id="stop6" />
    </linearGradient>
    <linearGradient
       id="linear-gradient-2"
       x1="8.95"
       y1="13.48"
       x2="18.28"
       y2="32.02"
       gradientUnits="userSpaceOnUse">
      <stop
         offset="0"
         stop-color="#002dd9"
         id="stop9" />
      <stop
         offset="1"
         stop-color="#00b2ab"
         id="stop11" />
    </linearGradient>
    <linearGradient
       id="linear-gradient-3"
       x1="23.33"
       y1="-3.39"
       x2="5.66"
       y2="37.65"
       gradientUnits="userSpaceOnUse">
      <stop
         offset="0"
         stop-color="#3482c0"
         id="stop14" />
      <stop
         offset="0.45"
         stop-color="#96bede"
         id="stop16" />
      <stop
         offset="0.83"
         stop-color="#e1edf6"
         id="stop18" />
      <stop
         offset="1"
         stop-color="#fff"
         id="stop20" />
    </linearGradient>
    <linearGradient
       id="linear-gradient-4"
       x1="21.64"
       y1="1.42"
       x2="6.63"
       y2="30.44"
       xlink:href="#linear-gradient-3" />
    <linearGradient
       id="linear-gradient-5"
       x1="25.15"
       y1="3.24"
       x2="10.14"
       y2="32.25"
       gradientUnits="userSpaceOnUse">
      <stop
         offset="0"
         stop-color="#569fa1"
         id="stop24" />
      <stop
         offset="0.36"
         stop-color="#97c4c5"
         id="stop26" />
      <stop
         offset="0.8"
         stop-color="#e2eeef"
         id="stop28" />
      <stop
         offset="1"
         stop-color="#fff"
         id="stop30" />
    </linearGradient>
    <radialGradient
       id="radial-gradient"
       cx="21.16"
       cy="32.05"
       r="27.25"
       gradientUnits="userSpaceOnUse">
      <stop
         offset="0"
         stop-color="#ff0"
         id="stop33" />
      <stop
         offset="1"
         id="stop35" />
    </radialGradient>
    <linearGradient
       inkscape:collect="always"
       xlink:href="#paint0_linear_785_291"
       id="linearGradient21321"
       gradientUnits="userSpaceOnUse"
       x1="19.0453"
       y1="11.3838"
       x2="19.0453"
       y2="27.4498" />
    <linearGradient
       id="paint0_linear_785_291"
       x1="19.0453"
       y1="11.3838"
       x2="19.0453"
       y2="27.4498"
       gradientUnits="userSpaceOnUse">
      <stop
         stop-color="#8360FF"
         id="stop1458" />
      <stop
         offset="1"
         stop-color="#C62090"
         id="stop1460" />
    </linearGradient>
  </defs>
  <g
     style="fill:none"
     id="g1474"
     transform="matrix(0.92678859,0,0,0.92678859,7.7675684,0.2054878)"
     inkscape:export-filename="/home/peritissimus/Projects/trash/Archive/src/assets/images/logo.png"
     inkscape:export-xdpi="96"
     inkscape:export-ydpi="96">
    <path
       d="M 27.8467,0.336426 H 10.0558 C 4.50212,0.336426 0,4.83854 0,10.3922 V 28.441 c 0,5.5536 4.50212,10.0557 10.0558,10.0557 h 17.7909 c 5.5537,0 10.0558,-4.5021 10.0558,-10.0557 V 10.3922 c 0,-5.55366 -4.5021,-10.055774 -10.0558,-10.055774 z"
       fill="#ffffff"
       id="path1454" />
    <path
       d="m 18.9753,27.4498 c -0.3146,0 -0.6163,-0.125 -0.8387,-0.3474 C 17.9142,26.88 17.7892,26.5783 17.7892,26.2637 V 12.5698 c 0,-0.3145 0.125,-0.6162 0.3474,-0.8386 0.2224,-0.2225 0.5241,-0.3474 0.8387,-0.3474 h 0.1389 c 0.3146,0 0.6163,0.1249 0.8387,0.3474 0.2224,0.2224 0.3474,0.5241 0.3474,0.8386 v 13.6939 c 0,0.3146 -0.125,0.6163 -0.3474,0.8387 -0.2224,0.2224 -0.5241,0.3474 -0.8387,0.3474 z m 3.8353,-3.8604 v -8.3452 c 0,-0.1647 0.0429,-0.3266 0.1244,-0.4697 0.0816,-0.1431 0.199,-0.2625 0.3407,-0.3465 0.1417,-0.0839 0.3028,-0.1295 0.4674,-0.1323 0.1647,-0.0028 0.3273,0.0373 0.4717,0.1164 l 7.6202,4.1734 c 0.1492,0.0817 0.2737,0.2021 0.3604,0.3485 0.0867,0.1463 0.1324,0.3133 0.1324,0.4834 0,0.1701 -0.0457,0.3371 -0.1324,0.4835 -0.0867,0.1464 -0.2112,0.2667 -0.3604,0.3485 l -7.6196,4.1736 c -0.1444,0.0797 -0.3071,0.1204 -0.472,0.1179 -0.1649,-0.0025 -0.3262,-0.048 -0.4681,-0.132 -0.1419,-0.0841 -0.2594,-0.2038 -0.3408,-0.3472 -0.0814,-0.1434 -0.1239,-0.3056 -0.1234,-0.4705 z M 13.8752,24.4202 6.25551,20.2478 C 6.10632,20.1661 5.98184,20.0457 5.89514,19.8994 5.80844,19.753 5.7627,19.586 5.7627,19.4159 c 0,-0.1701 0.04574,-0.3371 0.13244,-0.4835 0.0867,-0.1463 0.21118,-0.2667 0.36037,-0.3484 l 7.61969,-4.1737 c 0.1444,-0.0791 0.307,-0.1192 0.4716,-0.1164 0.1647,0.0028 0.3258,0.0483 0.4674,0.1323 0.1417,0.0839 0.2591,0.2033 0.3407,0.3463 0.0815,0.1431 0.1244,0.3049 0.1245,0.4696 v 8.346 c 6e-4,0.1649 -0.042,0.3271 -0.1234,0.4705 -0.0814,0.1435 -0.1988,0.2631 -0.3407,0.3472 -0.1419,0.084 -0.3033,0.1295 -0.4682,0.132 -0.1649,0.0025 -0.3276,-0.0382 -0.4719,-0.1179 z"
       fill="url(#paint0_linear_785_291)"
       id="path1456"
       style="fill:url(#linearGradient21321)" />
  </g>
  <g
     style="fill:none"
     id="g1491"
     transform="matrix(0.90032927,0,0,0.90032927,56.209859,-2.8647404)"
     inkscape:export-filename="/home/peritissimus/Projects/trash/Archive/src/assets/images/logo.png"
     inkscape:export-xdpi="96"
     inkscape:export-ydpi="96">
    <path
       d="m 18.0005,24.0663 c 0,1.803 -0.3777,3.3913 -1.1332,4.765 -0.7556,1.3736 -1.8545,2.4468 -3.2969,3.2195 -1.4251,0.7555 -3.1251,1.1333 -5.09972,1.1333 H 2.00583 v -18.184 h 6.46485 c 1.97462,0 3.67462,0.3777 5.09972,1.1333 1.4424,0.7383 2.5413,1.7943 3.2969,3.168 0.7555,1.3565 1.1332,2.9448 1.1332,4.7649 z m -9.8389,5.8725 c 1.9575,0 3.4685,-0.5151 4.5331,-1.5454 1.0818,-1.0303 1.6227,-2.4726 1.6227,-4.3271 0,-1.8716 -0.5409,-3.3225 -1.6227,-4.3528 -1.0646,-1.0303 -2.5756,-1.5454 -4.5331,-1.5454 H 5.63748 V 29.9388 Z M 32.8985,18.9151 v 14.269 h -3.6316 v -2.8847 c -0.3778,0.9615 -1.0045,1.7171 -1.8802,2.2665 -0.8586,0.5323 -1.8545,0.7985 -2.9878,0.7985 -1.6484,0 -2.962,-0.5409 -3.9407,-1.6227 -0.9787,-1.0817 -1.4681,-2.5928 -1.4681,-4.5331 v -8.2935 h 3.6059 v 7.8814 c 0,1.1333 0.2919,2.0176 0.8757,2.6529 0.5838,0.6182 1.3737,0.9272 2.3696,0.9272 1.0474,0 1.8802,-0.3348 2.4984,-1.0045 0.6181,-0.6696 0.9272,-1.6312 0.9272,-2.8847 v -7.5723 z m 10.3556,-0.1803 c 1.202,0 2.2838,0.2919 3.2454,0.8757 0.9615,0.5838 1.7085,1.4337 2.2408,2.5499 0.5494,1.0989 0.8242,2.3953 0.8242,3.8892 0,1.4938 -0.2748,2.7988 -0.8242,3.9149 -0.5323,1.099 -1.2793,1.9403 -2.2408,2.5242 -0.9616,0.5838 -2.0434,0.8757 -3.2454,0.8757 -1.2019,0 -2.2322,-0.2833 -3.0907,-0.85 -0.8414,-0.5838 -1.4424,-1.3565 -1.803,-2.3181 v 2.9878 H 34.7288 V 14.1244 h 3.6316 v 7.7526 c 0.3606,-0.9615 0.9616,-1.7256 1.803,-2.2923 0.8585,-0.5666 1.8888,-0.8499 3.0907,-0.8499 z m -1.1332,3.168 c -1.099,0 -2.009,0.3777 -2.7302,1.1333 -0.704,0.7383 -1.056,1.7428 -1.056,3.0135 0,1.2534 0.352,2.2579 1.056,3.0135 0.7212,0.7383 1.6312,1.1075 2.7302,1.1075 1.1332,0 2.0433,-0.3606 2.7301,-1.0818 0.6869,-0.7383 1.0303,-1.7514 1.0303,-3.0392 0,-1.2879 -0.3434,-2.3009 -1.0303,-3.0393 -0.6868,-0.7383 -1.5969,-1.1075 -2.7301,-1.1075 z M 56.87,29.5524 60.4758,18.9151 h 3.8635 l -5.2801,14.269 h -4.4301 l -5.28,-14.269 h 3.8892 z m 21.4352,-4.0437 c 0,0.3606 -0.0429,0.7727 -0.1287,1.2363 H 67.7194 c 0.0515,1.2706 0.3949,2.2065 1.0302,2.8074 0.6353,0.601 1.4252,0.9015 2.3696,0.9015 0.8414,0 1.5368,-0.206 2.0863,-0.6181 0.5666,-0.4121 0.9272,-0.9702 1.0817,-1.6742 h 3.8377 c -0.1888,0.9959 -0.5924,1.8888 -1.2105,2.6787 -0.6182,0.7898 -1.4166,1.408 -2.3953,1.8544 -0.9616,0.4465 -2.0348,0.6697 -3.2196,0.6697 -1.3908,0 -2.6271,-0.2919 -3.7089,-0.8757 -1.0818,-0.601 -1.9232,-1.451 -2.5241,-2.5499 -0.601,-1.099 -0.9015,-2.3954 -0.9015,-3.8892 0,-1.4939 0.3005,-2.7903 0.9015,-3.8892 0.6009,-1.1162 1.4423,-1.9661 2.5241,-2.5499 1.0818,-0.5838 2.3181,-0.8757 3.7089,-0.8757 1.408,0 2.6357,0.2919 3.6832,0.8757 1.0646,0.5838 1.8802,1.3908 2.4468,2.4211 0.5838,1.0131 0.8757,2.1721 0.8757,3.4771 z m -3.6574,-0.3606 c 0.0515,-1.1676 -0.2575,-2.0519 -0.9272,-2.6529 -0.6525,-0.601 -1.4595,-0.9015 -2.4211,-0.9015 -0.9787,0 -1.8029,0.3005 -2.4726,0.9015 -0.6697,0.601 -1.0388,1.4853 -1.1075,2.6529 z m 8.3953,-3.5029 c 0.5323,-0.91 1.2363,-1.6226 2.1121,-2.1378 0.8757,-0.5323 1.8544,-0.7984 2.9362,-0.7984 v 3.8892 h -1.056 c -2.6615,0 -3.9923,1.2363 -3.9923,3.7089 v 6.877 h -3.6316 v -14.269 h 3.6316 z m 10.506,-2.9104 c 1.7342,0 3.1251,0.4378 4.1725,1.3135 1.0474,0.8757 1.6999,2.0434 1.9575,3.5029 h -3.3999 c -0.1373,-0.6868 -0.4464,-1.2363 -0.9272,-1.6484 -0.4808,-0.4121 -1.1075,-0.6182 -1.8802,-0.6182 -0.6182,0 -1.0989,0.146 -1.4424,0.4379 -0.3434,0.2919 -0.5151,0.6868 -0.5151,1.1848 0,0.3949 0.1374,0.7126 0.4121,0.953 0.2748,0.2404 0.6182,0.4292 1.0303,0.5666 0.4121,0.1374 1.0045,0.3005 1.7772,0.4894 1.0817,0.2404 1.9574,0.4979 2.6271,0.7727 0.6868,0.2575 1.2707,0.6782 1.7514,1.262 0.498,0.5667 0.747,1.3394 0.747,2.3181 0,1.2191 -0.4808,2.2065 -1.4424,2.962 -0.9444,0.7555 -2.2236,1.1333 -3.8377,1.1333 -1.8544,0 -3.3397,-0.4121 -4.4558,-1.2363 -1.1161,-0.8414 -1.7944,-2.0348 -2.0348,-3.5802 h 3.4771 c 0.0859,0.704 0.395,1.2621 0.9273,1.6742 0.5323,0.3949 1.2277,0.5924 2.0862,0.5924 0.6182,0 1.0904,-0.146 1.4166,-0.4379 0.3263,-0.309 0.4894,-0.704 0.4894,-1.1848 0,-0.4121 -0.146,-0.7469 -0.4379,-1.0045 -0.2747,-0.2575 -0.6267,-0.455 -1.056,-0.5924 -0.4121,-0.1373 -1.0045,-0.3004 -1.7772,-0.4893 -1.0646,-0.2404 -1.9317,-0.4808 -2.6014,-0.7212 -0.6525,-0.2576 -1.2191,-0.6611 -1.6999,-1.2106 -0.4636,-0.5494 -0.6954,-1.3049 -0.6954,-2.2665 0,-1.2363 0.4722,-2.2408 1.4166,-3.0135 0.9444,-0.7727 2.2494,-1.159 3.915,-1.159 z m 20.9619,6.7739 c 0,0.3606 -0.042,0.7727 -0.128,1.2363 h -10.457 c 0.051,1.2706 0.395,2.2065 1.03,2.8074 0.635,0.601 1.425,0.9015 2.369,0.9015 0.842,0 1.537,-0.206 2.087,-0.6181 0.566,-0.4121 0.927,-0.9702 1.081,-1.6742 h 3.838 c -0.189,0.9959 -0.592,1.8888 -1.21,2.6787 -0.619,0.7898 -1.417,1.408 -2.396,1.8544 -0.961,0.4465 -2.034,0.6697 -3.219,0.6697 -1.391,0 -2.627,-0.2919 -3.709,-0.8757 -1.082,-0.601 -1.923,-1.451 -2.524,-2.5499 -0.601,-1.099 -0.902,-2.3954 -0.902,-3.8892 0,-1.4939 0.301,-2.7903 0.902,-3.8892 0.601,-1.1162 1.442,-1.9661 2.524,-2.5499 1.082,-0.5838 2.318,-0.8757 3.709,-0.8757 1.408,0 2.635,0.2919 3.683,0.8757 1.065,0.5838 1.88,1.3908 2.447,2.4211 0.584,1.0131 0.875,2.1721 0.875,3.4771 z m -3.657,-0.3606 c 0.052,-1.1676 -0.257,-2.0519 -0.927,-2.6529 -0.653,-0.601 -1.46,-0.9015 -2.421,-0.9015 -0.979,0 -1.803,0.3005 -2.473,0.9015 -0.67,0.601 -1.039,1.4853 -1.107,2.6529 z"
       fill="#ffffff"
       id="path1476" />
    <circle
       cx="22.4347"
       cy="14.902"
       r="1.47179"
       fill="#ffffff"
       id="circle1478" />
    <circle
       cx="29.057699"
       cy="14.902"
       r="1.47179"
       fill="#ffffff"
       id="circle1480" />
  </g>
</svg>
